<svg width="61" height="61" viewBox="0 0 61 61" fill="none" xmlns="http://www.w3.org/2000/svg">
<path d="M2 16.1667V47.3333C2 51.3004 2 53.2825 2.77204 54.7977C3.45114 56.1305 4.53397 57.2163 5.86678 57.8954C7.38051 58.6667 9.3631 58.6667 13.3224 58.6667H47.3443C51.3036 58.6667 53.2833 58.6667 54.797 57.8954C56.1298 57.2163 57.2163 56.1305 57.8954 54.7977C58.6667 53.284 58.6667 51.3036 58.6667 47.3443V16.1667M2 16.1667H58.6667M2 16.1667L6.835 7.70524C8.02155 5.62878 8.61471 4.59075 9.44901 3.83482C10.1878 3.16545 11.0617 2.65894 12.0094 2.34961C13.0805 2 14.2762 2 16.6716 2H43.9938C46.3893 2 47.5894 2 48.6605 2.34961C49.6082 2.65894 50.478 3.16545 51.2167 3.83482C52.0517 4.59136 52.6465 5.63046 53.8349 7.71025L58.6667 16.1667M30.3333 26.7917V48.0417M30.3333 48.0417L40.9583 40.9583M30.3333 48.0417L19.7083 40.9583" stroke="black" stroke-width="3" stroke-linecap="round" stroke-linejoin="round"/>
</svg>
